<svg xmlns="http://www.w3.org/2000/svg" xmlns:xlink="http://www.w3.org/1999/xlink" height="800" width="1200" viewBox="-36 -16.07765 312 96.4659"><path transform="translate(0 -.3894)" fill="url(#SVGID_5_)" clip-path="url(#SVGID_4_)" d="M218.9 85.1l-37.4-37.3 37.4-37.4 37.3 37.4z"/><path transform="translate(0 -.3894)" fill="url(#SVGID_8_)" clip-path="url(#SVGID_7_)" d="M218.9-20.8l-36.1 36 36.1 36.1 36-36.1z"/><path transform="translate(0 -.3894)" d="M138.6 30.2h-10.2c.5-3.7 1.7-4.9 5.3-4.9 3.5 0 4.8.9 4.9 4.9m-5.4-11.5c-8.4 0-13.7 3.5-13.7 15.2 0 12 6.1 15.6 14.3 15.6 3.3 0 7.6-.6 10.6-1.6l-1.3-6.7c-2.2.6-6 1-8.1 1-4.2 0-6.3-.9-6.4-5.5h17.9c.6-15-3.6-18-13.3-18" fill="#4b4b4a" clip-path="url(#SVGID_10_)"/><path transform="translate(0 -.3894)" d="M20.3 36.4c-1.7-6.4-6.1-20.2-8.7-27.2-.2-.6-1-1.7-2-1.7H0v.4s1.9.2 3.2 4.3c2.7 8.3 9.2 28.7 11.4 36.4h10.8c3.8-9.3 10.8-31.9 13.5-41.2h-9.7c-1.9 6.8-6.6 22.3-8.9 29" fill="#4b4b4a" clip-path="url(#SVGID_12_)"/><path transform="translate(0 -.3894)" d="M71 7.5h-8.8v32.9c0 10.4 10.1 8.8 10.1 8.8-1.2-2.4-1.3-6.2-1.3-9z" fill="#4b4b4a" clip-path="url(#SVGID_14_)"/><path transform="translate(0 -.3894)" d="M83.1 27c1.1-.3 2.6-.5 3.8-.5 4 0 4.8 1.4 4.8 6.7v15.5h8.7V32.6c0-2.2-.2-4-.6-5.5 1.4-.3 3.3-.5 4.4-.5 4 0 4.8 1.4 4.8 6.7v15.5h8.7V32.6c0-10.5-3.6-13.9-11.7-13.9-3.3 0-7 .8-10.1 1.9-1.8-1.3-4.2-1.9-7.3-1.9-5.2 0-10.7 1.3-14.5 2.6v27.4h8.8V27z" fill="#4b4b4a" clip-path="url(#SVGID_16_)"/><path transform="translate(0 -.3894)" d="M169.8 27v-7.5h-9.1v-4.9c0-4.4.6-7.1.6-7.1s-9.4 1.2-9.4 7.6v4.3h-4.7v7.5h4.7v11.8c0 8.7 3.6 10.7 10 10.7 3.1 0 6.6-.6 8.8-1.5l-1.4-6.7c-1.4.5-2.9.8-4.7.8-3.1 0-3.9-1.2-3.9-4.2V27z" fill="#4b4b4a" clip-path="url(#SVGID_18_)"/><path transform="translate(0 -.3894)" d="M51.2 42.2c-1.4.5-3.2.8-4.8.8-3.4 0-4.2-.5-4.2-3.5 0-2.9 1.1-3.3 4.3-3.3 1.8 0 3.4.1 4.7.4zm8.3 5V30.1c0-8.7-4.1-11.3-12.8-11.3-4.3 0-5.5.2-8.8 1l-2.5 7.4c2.5-.7 5.9-1.3 9.2-1.3 5.7 0 6.6 1.1 6.6 5.2-2.2-.5-4.4-.7-6.6-.7-7 0-11.4 1.3-11.4 9.5 0 7.6 2.9 9.7 12.5 9.7 4.3-.1 9.9-1 13.8-2.4" fill="#4b4b4a" clip-path="url(#SVGID_20_)"/><path transform="translate(0 -.3894)" fill="url(#SVGID_23_)" clip-path="url(#SVGID_22_)" d="M152.1 30.8l39-38.9 39 38.9-39 39z"/><path transform="translate(0 -.3894)" d="M166.5 60.7c0 2.3-.7 2.7-2.3 2.7h-1.5v-5.5h1.5c1.6.1 2.3.5 2.3 2.8m1.5 0c0-3.1-1.4-3.9-3.8-3.9h-3v7.9h3c2.5 0 3.8-1 3.8-4M153.3 58h-2.5v2.4h2.5c.8 0 1.2-.4 1.2-1.2-.1-.9-.4-1.2-1.2-1.2m.5 3.2c.8.2 1.2.6 2.9 3.5H155c-1.4-2.6-2.1-3.1-2.9-3.1h-1.3v3.1h-1.5v-7.9h4.3c1.9 0 2.4 1.1 2.4 2.3 0 1.1-.5 2-2.2 2.1m-11.9.2h-2.7c.4-1.2.8-2.3 1.3-3.4h.4c.2 1.1.5 2.2 1 3.4m2.8 3.3c-1-2.1-2-5.3-2.8-7.9h-2.4c-1 2.5-2.1 5.4-2.9 7.9h1.5c.2-.7.4-1.4.7-2.1h3.5c.3.8.6 1.5.8 2.1zm-19.7 0h-1.9c-.7-2.7-1.6-5.5-2.5-7.9h1.6c.7 1.8 1.4 4.2 2 6.4.6-1.7 1.5-4.9 1.9-6.4h1.6c.6 1.7 1.3 4.5 1.7 6.4.8-2.1 1.5-4.3 2-6.4h1.6c-.7 2.6-1.6 5.4-2.7 7.9h-1.9c-.4-1.9-1.1-4.7-1.5-6-.6 1.8-1.3 4.3-1.9 6m-10.3-5.5c0 .8-.4 1.2-1.2 1.2H111V58h2.5c.8 0 1.2.3 1.2 1.2m1.6-.1c0-1.2-.5-2.3-2.4-2.3h-4.3v7.9h1.5v-3.1h1.3c.9 0 1.5.4 2.9 3.1h1.7c-1.7-2.9-2.2-3.3-2.9-3.5 1.6-.1 2.2-1 2.2-2.1m-15.7-1.3c-1.6 0-2.1.4-2.1 2.9 0 2.4.5 2.9 2.1 2.9s2.1-.5 2.1-2.9c0-2.5-.5-2.9-2.1-2.9m0 7.1c-2.5 0-3.7-1-3.7-4.2s1.2-4.1 3.7-4.1 3.7.9 3.7 4.1c-.1 3.2-1.2 4.2-3.7 4.2m-14-.2h1.5v-3.2h3.5v-1.2h-3.5V58h4.5v-1.3h-6z" fill="#4b4b4a" clip-path="url(#SVGID_25_)"/><defs id="defs11384"><clipPath id="SVGID_2_"><use height="100%" width="100%" y="0" x="0" id="use11311" xlink:href="#SVGID_1_"/></clipPath><clipPath id="SVGID_4_"><use height="100%" width="100%" y="0" x="0" id="use11314" xlink:href="#SVGID_3_"/></clipPath><clipPath id="SVGID_7_"><use height="100%" width="100%" y="0" x="0" id="use11330" xlink:href="#SVGID_6_"/></clipPath><clipPath id="SVGID_10_"><use height="100%" width="100%" y="0" x="0" id="use11344" xlink:href="#SVGID_9_"/></clipPath><clipPath id="SVGID_12_"><use height="100%" width="100%" y="0" x="0" id="use11347" xlink:href="#SVGID_11_"/></clipPath><clipPath id="SVGID_14_"><use height="100%" width="100%" y="0" x="0" id="use11350" xlink:href="#SVGID_13_"/></clipPath><clipPath id="SVGID_16_"><use height="100%" width="100%" y="0" x="0" id="use11353" xlink:href="#SVGID_15_"/></clipPath><clipPath id="SVGID_18_"><use height="100%" width="100%" y="0" x="0" id="use11356" xlink:href="#SVGID_17_"/></clipPath><clipPath id="SVGID_20_"><use height="100%" width="100%" y="0" x="0" id="use11359" xlink:href="#SVGID_19_"/></clipPath><clipPath id="SVGID_22_"><use height="100%" width="100%" y="0" x="0" id="use11362" xlink:href="#SVGID_21_"/></clipPath><clipPath id="SVGID_25_"><use height="100%" width="100%" y="0" x="0" id="use11370" xlink:href="#SVGID_24_"/></clipPath><path id="SVGID_1_" d="M0 .2h240v64.5H0z"/><path d="M220.4 31.6l-22.7 22.7 5 5c4.8 4.8 9.6 0 9.6 0L240 31.6z" id="SVGID_3_"/><path d="M202.8 2.5l-5 5 22.6 22.6H240L212.3 2.5s-2.1-2.1-5-2.1c-1.4-.1-2.9.5-4.5 2.1" id="SVGID_6_"/><path id="SVGID_9_" d="M0 .2h240v64.5H0z"/><path id="SVGID_11_" d="M0 .2h240v64.5H0z"/><path id="SVGID_13_" d="M0 .2h240v64.5H0z"/><path id="SVGID_15_" d="M0 .2h240v64.5H0z"/><path id="SVGID_17_" d="M0 .2h240v64.5H0z"/><path id="SVGID_19_" d="M0 .2h240v64.5H0z"/><path d="M175.1 31.6l22.2 22.2 9.8-9.8-12.4-12.4h-19.6zm0-1.5h19.6l12.5-12.5-9.8-9.8z" id="SVGID_21_"/><path id="SVGID_24_" d="M0 .2h240v64.5H0z"/><linearGradient gradientTransform="matrix(7.418 7.418 -7.418 7.418 -901.8436 4478.3755)" x2="-222.76" x1="-224.08" gradientUnits="userSpaceOnUse" id="SVGID_5_"><stop id="stop11317" stop-color="#429143"/><stop id="stop11319" stop-color="#429143" offset=".088"/><stop id="stop11321" stop-color="#479b46" offset=".321"/><stop id="stop11323" stop-color="#4ea94a" offset=".712"/><stop id="stop11325" stop-color="#51af4c" offset=".986"/><stop id="stop11327" stop-color="#51af4c" offset="1"/></linearGradient><linearGradient gradientTransform="scale(10.49064 -10.49064) rotate(45 -474.6816 75.0446)" x2="-177.93" x1="-179.25" gradientUnits="userSpaceOnUse" id="SVGID_8_"><stop id="stop11333" stop-color="#429143"/><stop id="stop11335" stop-color="#49a047" offset=".312"/><stop id="stop11337" stop-color="#4fab4a" offset=".629"/><stop id="stop11339" stop-color="#51af4c" offset=".903"/><stop id="stop11341" stop-color="#51af4c" offset="1"/></linearGradient><linearGradient gradientTransform="rotate(135 -4079.12 -3231.172) scale(24.55301)" x2="-194.69" x1="-196.01" gradientUnits="userSpaceOnUse" id="SVGID_23_"><stop id="stop11365" stop-color="#e7e7e7"/><stop id="stop11367" stop-color="#d0d1d1" offset="1"/></linearGradient></defs></svg>